<?xml version="1.0" encoding="utf-8"?>
<svg version="1.1" xmlns="http://www.w3.org/2000/svg" xmlns:xlink="http://www.w3.org/1999/xlink" width="32" height="448" viewBox="0 0 32 448">
<svg id="icon-logo"  viewBox="0 0 32 32" >
<path fill="#85aa9f" d="M32 16c0 8.837-7.163 16-16 16s-16-7.163-16-16c0-8.837 7.163-16 16-16s16 7.163 16 16z"></path>
<path fill="#fcfcfc" d="M16.354 15.2c4.755-3.586 4.965-5.76 0-9.6-5.060 3.922-4.408 6.001 0 9.6zM15.2 16.446c-3.586-4.755-5.76-4.965-9.6 0 3.922 5.060 6.001 4.408 9.6 0zM27.2 16.446c-3.586-4.755-5.76-4.965-9.6 0 3.922 5.060 6.001 4.408 9.6 0zM16.354 27.2c4.755-3.586 4.965-5.76 0-9.6-5.060 3.922-4.408 6.001 0 9.6z"></path>
</svg>
<svg id="icon-user" viewBox="0 0 32 32" >
<path opacity="0.7" d="M16 0c2.122 0 4.157 0.843 5.657 2.343s2.343 3.535 2.343 5.657-0.843 4.157-2.343 5.657c-1.5 1.5-3.535 2.343-5.657 2.343s-4.157-0.843-5.657-2.343c-1.5-1.5-2.343-3.535-2.343-5.657s0.843-4.157 2.343-5.657c1.5-1.5 3.535-2.343 5.657-2.343zM16 32c0 0 16 0 16-4 0-4.8-7.8-10-16-10s-16 5.2-16 10c0 4 16 4 16 4z"></path>
</svg>
<svg id="icon-close" viewBox="0 0 32 32" >
<path fill="none" stroke="#fcfcfc" stroke-linejoin="round" stroke-linecap="round" stroke-miterlimit="4" stroke-width="2.5" d="M24 8l-16 16"></path>
<path fill="none" stroke="#fcfcfc" stroke-linejoin="round" stroke-linecap="round" stroke-miterlimit="4" stroke-width="2.5" d="M8 8l16 16"></path>
</svg>
<svg id="icon-search" viewBox="0 0 32 32" >
<path fill="none" stroke-linejoin="round" stroke-linecap="round" stroke-miterlimit="4" stroke-width="2.4" stroke="#000" d="M14.667 25.333c5.891 0 10.667-4.776 10.667-10.667s-4.776-10.667-10.667-10.667c-5.891 0-10.667 4.776-10.667 10.667s4.776 10.667 10.667 10.667z"></path>
<path fill="none" stroke-linejoin="round" stroke-linecap="round" stroke-miterlimit="4" stroke-width="2.4" stroke="#000" d="M28 28l-5.8-5.8"></path>
</svg>
<svg width="20" height="20" viewBox="0 0 20 20" fill="none" id="icon-down-white">
  <mask id="path-1-inside-1_126_1564" fill="white">
    <path d="M10 13.752L3.75 7.50195L4.625 6.62695L10 12.002L15.375 6.62695L16.25 7.50195L10 13.752Z" />
  </mask>
  <path d="M10 13.752L3.75 7.50195L4.625 6.62695L10 12.002L15.375 6.62695L16.25 7.50195L10 13.752Z" fill="#FCFCFC" />
  <path d="M10 13.752L8.93934 14.8126L10 15.8733L11.0607 14.8126L10 13.752ZM3.75 7.50195L2.68934 6.44129L1.62868 7.50195L2.68934 8.56261L3.75 7.50195ZM4.625 6.62695L5.68566 5.56629L4.625 4.50563L3.56434 5.56629L4.625 6.62695ZM10 12.002L8.93934 13.0626L10 14.1233L11.0607 13.0626L10 12.002ZM15.375 6.62695L16.4357 5.56629L15.375 4.50563L14.3143 5.56629L15.375 6.62695ZM16.25 7.50195L17.3107 8.56261L18.3713 7.50195L17.3107 6.44129L16.25 7.50195ZM11.0607 12.6913L4.81066 6.44129L2.68934 8.56261L8.93934 14.8126L11.0607 12.6913ZM4.81066 8.56261L5.68566 7.68761L3.56434 5.56629L2.68934 6.44129L4.81066 8.56261ZM3.56434 7.68761L8.93934 13.0626L11.0607 10.9413L5.68566 5.56629L3.56434 7.68761ZM11.0607 13.0626L16.4357 7.68761L14.3143 5.56629L8.93934 10.9413L11.0607 13.0626ZM14.3143 7.68761L15.1893 8.56261L17.3107 6.44129L16.4357 5.56629L14.3143 7.68761ZM15.1893 6.44129L8.93934 12.6913L11.0607 14.8126L17.3107 8.56261L15.1893 6.44129Z" fill="#FCFCFC" mask="url(#path-1-inside-1_126_1564)" />
</svg>
<svg id="icon-down" width="20" height="20" fill="none"><mask id="a" fill="#fff"><path d="m10 13.752-6.25-6.25.875-.875L10 12.002l5.375-5.375.875.875-6.25 6.25z"/></mask><path d="m10 13.752-6.25-6.25.875-.875L10 12.002l5.375-5.375.875.875-6.25 6.25z" fill="#121417"/><path d="m10 13.752-1.06 1.06L10 15.874l1.06-1.06L10 13.752zm-6.25-6.25-1.06-1.06-1.061 1.06 1.06 1.06 1.061-1.06zm.875-.875 1.06-1.06-1.06-1.061-1.06 1.06 1.06 1.061zM10 12.002l-1.06 1.06L10 14.124l1.06-1.06L10 12.002zm5.375-5.375 1.06-1.06-1.06-1.061-1.06 1.06 1.06 1.061zm.875.875 1.06 1.06 1.061-1.06-1.06-1.06-1.061 1.06zm-5.19 5.19-6.25-6.25-2.12 2.12 6.25 6.25 2.12-2.12zm-6.25-4.13.876-.874-2.122-2.122-.875.875 2.122 2.122zm-1.246-.874 5.375 5.375 2.122-2.122-5.375-5.375-2.122 2.122zm7.497 5.375 5.375-5.375-2.122-2.122-5.375 5.375 2.122 2.122zm3.253-5.375.875.875 2.122-2.122-.875-.875-2.122 2.122zm.875-1.247-6.25 6.25 2.122 2.122 6.25-6.25-2.122-2.122z" fill="#121417" mask="url(#a)"/></svg>
<svg id="icon-arrow" viewBox="0 0 32 32" >
<path fill="none" stroke-linejoin="round" stroke-linecap="round" stroke-miterlimit="4" stroke-width="2.4" d="M5.333 16h21.333M26.667 16l-5.333-5.333M26.667 16l-5.333 5.333"></path>
</svg>
<svg id="icon-plus" viewBox="0 0 32 32" >
<path fill="none" stroke="#85aa9f" stroke-linejoin="round" stroke-linecap="round" stroke-miterlimit="4" stroke-width="2.4" d="M16 6.667v18.667"></path>
<path fill="none" stroke="#85aa9f" stroke-linejoin="round" stroke-linecap="round" stroke-miterlimit="4" stroke-width="2.4" d="M6.667 16h18.667"></path>
</svg>
<symbol id="icon-eye" viewBox="0 0 32 32">
<path stroke-linejoin="round" stroke-linecap="round" stroke-miterlimit="4" stroke-width="2.88" d="M1.333 16s5.333-10.667 14.667-10.667c9.333 0 14.666 10.667 14.666 10.667s-5.333 10.667-14.666 10.667c-9.334 0-14.667-10.667-14.667-10.667z"></path>
<path stroke-linejoin="round" stroke-linecap="round" stroke-miterlimit="4" stroke-width="2.88" d="M16 20c2.209 0 4-1.791 4-4s-1.791-4-4-4v0c-2.209 0-4 1.791-4 4s1.791 4 4 4v0z"></path>
</symbol>
<symbol id="icon-eye-off" viewBox="0 0 32 32">
<path stroke-linejoin="round" stroke-linecap="round" stroke-miterlimit="4" stroke-width="2.88" d="M23.92 23.92c-2.175 1.672-4.923 2.697-7.908 2.747l-0.012 0c-9.334 0-14.667-10.667-14.667-10.667 1.713-3.152 3.978-5.791 6.689-7.877l0.058-0.043M13.2 5.653c0.833-0.203 1.788-0.32 2.771-0.32 0.010 0 0.020 0 0.030 0h-0.002c9.333 0 14.666 10.667 14.666 10.667-0.871 1.615-1.827 3.008-2.91 4.289l0.030-0.036M18.826 18.827c-0.732 0.782-1.77 1.269-2.922 1.269-2.209 0-4-1.791-4-4 0-1.152 0.487-2.191 1.267-2.921l0.002-0.002M1.333 1.333l29.333 29.334"></path>
</symbol>
<svg id="icon-trash" viewBox="0 0 32 32" >
<path fill="none" stroke-linejoin="round" stroke-linecap="round" stroke-miterlimit="4" stroke-width="2.88" stroke="#000" d="M12 4h8M13.333 14v6.667M18.667 14v6.667"></path>
<path fill="none" stroke-linejoin="round" stroke-linecap="round" stroke-miterlimit="4" stroke-width="2.88" stroke="#000" d="M4 8h24M25.333 8l-0.935 14.026c-0.14 2.104-0.21 3.156-0.665 3.954-0.4 0.702-1.004 1.267-1.731 1.62-0.826 0.4-1.881 0.4-3.99 0.4h-4.025c-2.109 0-3.163 0-3.99-0.4-0.727-0.352-1.331-0.917-1.731-1.62-0.455-0.798-0.525-1.85-0.665-3.954l-0.935-14.026"></path>
</svg>
<svg id="icon-edit" viewBox="0 0 32 32" >
<path fill="none" stroke-linejoin="round" stroke-linecap="round" stroke-miterlimit="4" stroke-width="2.88" stroke="#000" d="M3.835 24.154c0.061-0.551 0.092-0.827 0.175-1.085 0.074-0.229 0.179-0.446 0.311-0.647 0.149-0.226 0.345-0.422 0.737-0.814l17.608-17.608c1.473-1.473 3.861-1.473 5.333 0s1.473 3.861 0 5.333l-17.608 17.608c-0.392 0.392-0.588 0.588-0.814 0.737-0.201 0.132-0.418 0.237-0.647 0.311-0.258 0.084-0.533 0.114-1.085 0.175l-4.513 0.501 0.501-4.512z"></path>
</svg>
<svg id="icon-switch" viewBox="0 0 32 32" >
<path fill="none" stroke="#85aa9f" stroke-linejoin="round" stroke-linecap="round" stroke-miterlimit="4" stroke-width="2" d="M26.667 22.667h-21.333M5.333 22.667l5.333-5.333M5.333 22.667l5.333 5.333"></path>
<path fill="none" stroke="#85aa9f" stroke-linejoin="round" stroke-linecap="round" stroke-miterlimit="4" stroke-width="2" d="M5.333 9.333h21.333M26.667 9.333l-5.333-5.333M26.667 9.333l-5.333 5.333"></path>
</svg>
<svg id="icon-united-kingdom" viewBox="0 0 32 32" >
<path fill="#f0f0f0" d="M16 32c8.837 0 16-7.163 16-16s-7.163-16-16-16c-8.837 0-16 7.163-16 16s7.163 16 16 16z"></path>
<path fill="#0052b4" d="M3.308 6.259c-1.257 1.635-2.204 3.52-2.756 5.567h8.324l-5.567-5.567z"></path>
<path fill="#0052b4" d="M31.449 11.826c-0.552-2.047-1.5-3.932-2.756-5.567l-5.567 5.567h8.323z"></path>
<path fill="#0052b4" d="M0.551 20.174c0.552 2.047 1.5 3.932 2.756 5.567l5.567-5.567h-8.323z"></path>
<path fill="#0052b4" d="M25.741 3.308c-1.635-1.257-3.52-2.204-5.567-2.756v8.324l5.567-5.567z"></path>
<path fill="#0052b4" d="M6.259 28.692c1.635 1.257 3.52 2.204 5.567 2.756v-8.323l-5.567 5.567z"></path>
<path fill="#0052b4" d="M11.826 0.551c-2.047 0.552-3.932 1.5-5.567 2.756l5.567 5.567v-8.323z"></path>
<path fill="#0052b4" d="M20.174 31.449c2.047-0.552 3.932-1.5 5.567-2.756l-5.567-5.567v8.323z"></path>
<path fill="#0052b4" d="M23.125 20.174l5.567 5.567c1.257-1.635 2.204-3.52 2.756-5.567h-8.323z"></path>
<path fill="#d80027" d="M31.865 13.913h-13.778v-13.778c-0.683-0.089-1.38-0.135-2.087-0.135s-1.404 0.046-2.087 0.135v13.778h-13.778c-0.089 0.683-0.135 1.38-0.135 2.087s0.046 1.404 0.135 2.087h13.778v13.778c0.683 0.089 1.38 0.135 2.087 0.135s1.404-0.046 2.087-0.135v-13.778h13.778c0.089-0.683 0.135-1.38 0.135-2.087s-0.047-1.404-0.135-2.087z"></path>
<path fill="#d80027" d="M20.174 20.174l7.14 7.14c0.328-0.328 0.642-0.672 0.941-1.027l-6.113-6.113h-1.968z"></path>
<path fill="#d80027" d="M11.826 20.174h-0l-7.14 7.14c0.328 0.328 0.671 0.642 1.027 0.941l6.113-6.113v-1.967z"></path>
<path fill="#d80027" d="M11.826 11.826v-0l-7.14-7.14c-0.328 0.328-0.642 0.671-0.941 1.027l6.113 6.113h1.968z"></path>
<path fill="#d80027" d="M20.174 11.826l7.14-7.14c-0.328-0.328-0.671-0.642-1.027-0.94l-6.113 6.113v1.968z"></path>
</svg>
<svg id="icon-ukraine" viewBox="0 0 32 32" >
<path fill="#ffda44" d="M16 32c8.837 0 16-7.163 16-16s-7.163-16-16-16c-8.837 0-16 7.163-16 16s7.163 16 16 16z"></path>
<path fill="#338af3" d="M0 16c0-8.836 7.163-16 16-16s16 7.163 16 16z"></path>
</svg>
<svg id="icon-burger" viewBox="0 0 40 28">
<line x1="7.58691" y1="4.43945" x2="38.5" y2="4.43945" stroke="#121417" stroke-width="3" stroke-linecap="round"/>
<line x1="7.58691" y1="21.4091" x2="38.5" y2="21.4091" stroke="#121417" stroke-width="3" stroke-linecap="round"/>
<line x1="17.1523" y1="12.9242" x2="38.5002" y2="12.9242" stroke="#121417" stroke-width="3" stroke-linecap="round"/>
</svg>
<svg id="icon-error" width="16" height="16" viewBox="0 0 16 16" fill="none">
<path d="M7.99992 14.6667C4.31792 14.6667 1.33325 11.682 1.33325 8C1.33325 4.318 4.31792 1.33333 7.99992 1.33333C11.6819 1.33333 14.6666 4.318 14.6666 8C14.6666 11.682 11.6819 14.6667 7.99992 14.6667ZM7.33325 10V11.3333H8.66659V10H7.33325ZM7.33325 4.66667V8.66667H8.66659V4.66667H7.33325Z" fill="#D80027" />
</svg>
<svg id="icon-success" width="16" height="16" viewBox="0 0 16 16" fill="none" >
<path d="M7.99992 14.6667C4.31792 14.6667 1.33325 11.682 1.33325 8C1.33325 4.318 4.31792 1.33333 7.99992 1.33333C11.6819 1.33333 14.6666 4.318 14.6666 8C14.6666 11.682 11.6819 14.6667 7.99992 14.6667ZM7.22925 10.99L11.9426 6.276L10.9999 5.33333L7.22925 9.10467L5.34325 7.21867L4.40058 8.16133L7.22925 10.99Z" fill="#3CBF61" />
</svg>
</svg>
